<?xml version="1.0" encoding="utf-8"?>
<!-- Generator: Adobe Illustrator 20.1.0, SVG Export Plug-In . SVG Version: 6.00 Build 0)  -->
<svg version="1.1" id="Lager_1" xmlns="http://www.w3.org/2000/svg" xmlns:xlink="http://www.w3.org/1999/xlink" x="0px" y="0px"
	 viewBox="0 0 100 100" style="enable-background:new 0 0 100 100;" xml:space="preserve">
<style type="text/css">
	.st0{fill:#30267E;}
	.st1{fill:#7EBCF9;}
</style>
<g>
	<circle class="st0" cx="50" cy="50" r="50"/>
	<g id="Ps_3_">
		<g>
			<path class="st1" d="M27,30.8c2.6-0.5,6.1-0.8,10.9-0.8c5.2,0,9.1,1.1,11.6,3.2c2.3,1.9,3.8,5,3.8,8.7s-1.2,6.8-3.4,8.9
				c-2.8,2.8-7.3,4.2-12.4,4.2c-1.3,0-2.6-0.1-3.5-0.2v14.7h-7V30.8L27,30.8z M34.1,49c0.9,0.2,2,0.3,3.5,0.3c5.3,0,8.6-2.6,8.6-7.2
				c0-4.4-3-6.7-8-6.7c-2,0-3.4,0.2-4.1,0.3V49z"/>
			<path class="st1" d="M56.5,62.9c1.6,1,4.7,2,7.3,2c3.1,0,4.5-1.3,4.5-3.1c0-1.9-1.2-2.9-4.6-4.1c-5.5-1.9-7.8-4.9-7.8-8.2
				c0-5,4.1-8.9,10.7-8.9c3.1,0,5.9,0.8,7.5,1.7l-1.4,5.1c-1.2-0.7-3.5-1.6-6-1.6c-2.6,0-3.9,1.2-3.9,3s1.3,2.7,4.9,3.9
				c5.1,1.9,7.5,4.5,7.5,8.7c0,5.1-4,8.8-11.5,8.8c-3.4,0-6.5-0.8-8.6-2L56.5,62.9z"/>
		</g>
	</g>
</g>
</svg>
