<?xml version="1.0" encoding="utf-8"?>
<!-- Generator: Adobe Illustrator 20.1.0, SVG Export Plug-In . SVG Version: 6.00 Build 0)  -->
<svg version="1.1" id="Lager_1" xmlns="http://www.w3.org/2000/svg" xmlns:xlink="http://www.w3.org/1999/xlink" x="0px" y="0px"
	 viewBox="0 0 100 100" style="enable-background:new 0 0 100 100;" xml:space="preserve">
<style type="text/css">
	.st0{fill:#36447F;}
	.st1{fill:#C9D5F7;}
</style>
<g>
	<g>
		<g>
			<circle class="st0" cx="50" cy="50" r="50"/>
		</g>
	</g>
	<g id="Layer_2_1_">
		<g>
			<g>
				<path class="st1" d="M27.7,42.7c2.3,0,3.8,0.4,4.6,1.3c0.8,0.8,0.9,2.3,0.5,4.3c-0.4,2.1-1.2,3.7-2.4,4.6s-3,1.4-5.4,1.4h-3.7
					l2.2-11.6C23.5,42.7,27.7,42.7,27.7,42.7z M13,66h6l1.4-7.4h5.2c2.3,0,4.1-0.2,5.6-0.7s2.8-1.3,4-2.4c1-0.9,1.8-2,2.5-3.1
					c0.6-1.1,1.1-2.4,1.3-3.7c0.6-3.3,0.2-5.8-1.4-7.7c-1.6-1.8-4.1-2.7-7.6-2.7H18.4L13,66z"/>
				<path class="st1" d="M45.1,31h6l-1.4,7.4H55c3.3,0,5.7,0.6,6.9,1.8c1.3,1.2,1.7,3.1,1.1,5.7l-2.5,12.9h-6.1l2.4-12.2
					c0.3-1.4,0.2-2.3-0.3-2.8S55,43,53.5,43h-4.8l-3.1,15.8h-6L45.1,31z"/>
				<path class="st1" d="M76.4,42.7c2.3,0,3.8,0.4,4.6,1.3c0.8,0.8,0.9,2.3,0.5,4.3c-0.4,2.1-1.2,3.7-2.4,4.6
					c-1.2,0.9-3,1.4-5.4,1.4H70l2.2-11.6C72.2,42.7,76.4,42.7,76.4,42.7z M61.7,66h6l1.4-7.4h5.2c2.3,0,4.1-0.2,5.6-0.7
					s2.8-1.3,4-2.4c1-0.9,1.8-2,2.5-3.1c0.6-1.1,1.1-2.4,1.3-3.7c0.6-3.3,0.2-5.8-1.4-7.7c-1.6-1.8-4.1-2.7-7.6-2.7H67.1L61.7,66z"
					/>
			</g>
		</g>
	</g>
</g>
</svg>
