<?xml version="1.0" encoding="utf-8"?>
<!-- Generator: Adobe Illustrator 20.0.0, SVG Export Plug-In . SVG Version: 6.00 Build 0)  -->
<svg version="1.1" id="Layer_1" xmlns="http://www.w3.org/2000/svg" xmlns:xlink="http://www.w3.org/1999/xlink" x="0px" y="0px"
	 viewBox="0 0 128 128" style="enable-background:new 0 0 128 128;" xml:space="preserve">
<style type="text/css">
	.st0{display:none;fill:#FEFEFE;}
	.st1{fill:#E4E7E7;}
	.st2{fill:#CECDCB;}
	.st3{fill:#3E4D5A;}
	.st4{fill:#E2574C;}
</style>
<g>
	<path class="st0" d="M0,1c41.5,0,83,0,124.5-0.1c3,0,3.6,0.6,3.6,3.6c-0.1,40.3-0.1,80.7,0,121c0,3-0.6,3.6-3.6,3.6
		c-40.3-0.1-80.7-0.1-121,0c-3,0-3.6-0.6-3.6-3.6C0.1,84,0,42.5,0,1z"/>
	<path class="st1" d="M33.6,97.3c-0.5,0.8-1,1.5-1.3,2.1c-0.6,1.2-1.5,2-2.7,1.4c-1.1-0.6-0.9-1.9-0.3-2.7c2.4-3.3,0.5-5.7-1.4-8.4
		c-2.7-3.7-4.3-7.9-4.9-12.4c-1.2-8.9,2.1-12.1,10.7-9.7c4,1.1,6.8,0.7,9.8-2.2c2.2-2.1,2-3.6,2.1-6.6C45.8,45.9,35,41.5,28,34.3
		c-3.8-3.9-8.8-6.5-12.4-10.8c-2.6-3.1-2.8-5.7,0.9-8.3c5-3.6,9.9-7.3,14.7-11.2c2.5-2,4-1.8,6.1,0.6c8.7,9.4,17.7,18.5,26.5,27.8
		c1.8,1.9,3.7,2.8,6.5,2.8c9.8-0.1,21.8,8.7,24.8,18.1c0.3,0.8,0.8,1.8,0.6,2.4c-2.2,5.7,2.2,7.7,5.5,10.5
		c9.2,7.9,15,18.6,23.3,27.4c1.5,1.6,0.6,3-0.7,4.3c-5.7,6.1-11.4,12.1-17.1,18.3c-2.2,2.4-3.5,1.3-5.1-0.7
		c-7.8-10-17.1-18.6-25.6-28.1c-2.9-3.3-7.7-1-10.1-4.9c-0.6-0.9-5.1,5.4-4.4,7.7c0.9,3.4,1.8,6.7,0.9,10.3
		c-1.3,5.1-4.1,7.2-9.4,6.8c-5.3-0.4-9.9-2.8-14.1-5.8C37.1,100.2,35.5,98.8,33.6,97.3z"/>
	<path class="st1" d="M33.1,128C18.4,127.7,5.3,116.2,3,101.6c-0.2-1.5-1.5-3.8,0.7-4.3c2.4-0.6,2,2,2.3,3.5
		c2.7,13.6,12.7,22.5,26.6,23.5c0.8,0.1,1.7,0,2.5,0.1c1.3,0.1,3-0.2,3,1.7c0,1.9-1.6,1.7-3,1.8C34.4,128,33.8,128,33.1,128z"/>
	<path class="st1" d="M15.8,99.5c0.4-1.1-0.6-3.4,1.8-3.2c1.9,0.1,1.3,2,1.3,3.2c0.1,5.9,4.5,8.2,8.9,10.2c2.4,1.1,5.1,1.6,7.6,2.3
		c1.1,0.3,1.8,0.8,1.7,2c-0.1,0.8-0.7,1-1.4,1.2C28.8,116.9,15.7,106.7,15.8,99.5z"/>
	<path class="st2" d="M120.1,95.2c0.1,1.5-0.3,2.6-1.1,3.4c-4,4.2-8,8.5-12,12.7c-1.8,1.9-3.1,1.4-4.8-0.5
		c-7.7-8.5-15.5-16.9-23.6-25.1c-2.7-2.7-2.4-4.1,0.1-6.7c3.9-4,7.6-8.4,11.5-12.4c2.4-2.5,3.9-2.1,6.2-0.3c3.3,2.6,6.3,5.4,8.9,8.7
		c4.5,5.6,8.8,11.2,13.2,16.9C119.3,93,120.1,94,120.1,95.2z"/>
	<path class="st2" d="M91.5,55c-0.2,3.7-1.7,6.4-3.8,8.8c-5,5.6-10,11.1-15.1,16.7c-0.7,0.8-1.5,2-2.8,0.5c-1.1-1.3-0.4-2,0.6-2.8
		c3.6-2.9,2.5-6.4,0.3-9.3c-2.8-3.5-6-6.7-9.2-9.8c-3.1-2.9-6.5-4.2-10-0.5c-0.6,0.6-1.4,1.3-2.1,0.7c-0.5-0.4-0.7-1.5-0.6-2.3
		c0.1-1.7,1-3.1,2-4.5c3.5-4.8,7.9-8.6,12.4-12.3c0.8-0.6,1.7-1.1,2.6-1.4c7.5-2.6,23.8,6.6,25.5,14.4C91.4,54,91.5,54.7,91.5,55z"
		/>
	<path class="st2" d="M63,36.5c-5,3.4-9.4,7-13.1,11.3c-1.5,1.7-2.3,2.2-4.1,0.1c-6.2-7.9-13.5-14.6-21.5-20.8
		c-6.8-5.3-6.8-8.8,0.2-14.1c9.2-7,7.7-9.5,17.5,1.5C48.7,22,55.8,29,63,36.5z"/>
	<path class="st3" d="M25.7,74.9c0-4.1,2-5.5,7-4.2c8.6,2.2,16,6.5,21.5,13.5c2.3,2.9,4.1,6.1,5.1,9.6c0.9,3,1.1,6-1.4,8.4
		c-2.4,2.3-5.5,2.4-8.4,1.4c-4.7-1.5-8.4-4.7-11.9-8c-2.7-2.6,1-3.6,1.5-5.3c0.4-1.5,4-2.3,1.3-4.2c-1.9-1.4-3.4,0.7-4.2,2.3
		c-1.9,3.4-3.3,2.6-5.2,0C28,84.2,26.2,79.7,25.7,74.9z"/>
	<path class="st4" d="M42.8,70.7c1.9-1.5,3.4-2.7,4.9-4c8.5-6.9,15.9-5.1,20.6,5c0.8,1.7,1,3.2-0.6,4.5c-2.7,2.2-5.4,4.3-7.5,7.2
		c-1.1,1.5-1.9,0.6-2.7-0.4C53.7,77.8,48.7,74,42.8,70.7z"/>
	<path class="st1" d="M84.3,87.7c-0.8,0.1-1.2-0.3-1.5-1c-0.4-0.9,0-1.7,0.7-2.2c3.8-2.8,6.9-6.3,9.1-10.5c0.4-0.8,1.1-1.4,2-1
		c0.5,0.2,1.1,0.9,1.2,1.4C96.1,77,86.8,87.7,84.3,87.7z"/>
	<path class="st1" d="M101,82.5c0.1,2.4-4.9,9.4-7.2,10.3c-0.9,0.3-1.6,0.3-2.1-0.5c-0.5-0.8-0.2-1.7,0.4-2.2
		c2.7-2.3,4.5-5.2,5.8-8.5c0.3-0.8,0.9-1.4,1.9-1.1C100.7,80.8,101.1,81.6,101,82.5z"/>
	<path class="st1" d="M115.2,96.4c-2.2,2.9-4.2,5.7-7.2,7.6c-0.3,0.2-1.4-0.2-1.6-0.7c-0.3-0.4-0.2-1.4,0.1-1.8
		c1.9-2.3,3.9-4.5,5.9-6.7c0.4-0.5,1.2-0.7,1.8-0.1C114.6,95.2,114.8,95.8,115.2,96.4z"/>
	<path class="st1" d="M107.8,90.1c-1.8,2.6-3.4,5.3-5.3,7.7c-0.7,0.9-1.8,0-2.2-1.1c-0.5-1.6,3.6-8.1,5.3-8.4
		C107,88,107.8,88.7,107.8,90.1z"/>
	<path class="st1" d="M38.6,34.8c-1.1,0.2-1.6-0.3-1.9-0.9c-0.4-0.7-0.1-1.4,0.4-1.8c2.9-2.2,5.8-4.4,8.8-6.6c0.6-0.4,1.3-0.6,1.8,0
		c0.3,0.5,0.6,1.4,0.4,1.7C45.3,30.6,41.8,32.8,38.6,34.8z"/>
	<path class="st1" d="M47.8,41.1c-0.4-0.3-1-0.6-1.3-1.1c-0.5-0.9,0.1-1.5,0.7-2.1c1.4-1.2,2.7-2.5,4-3.7c1.1-1,2.1-3.4,3.9-1.5
		c1.6,1.7-0.7,2.9-1.6,4C52,38.5,50.3,40.1,47.8,41.1z"/>
	<path class="st1" d="M33.6,25.6c-1.6,0-2.6-0.9-2.2-1.8c1.4-2.8,4.2-3.9,6.9-5c0.8-0.3,1.8,0.6,1.5,1.4
		C38.8,23.4,35.4,23.7,33.6,25.6z"/>
	<path class="st1" d="M33.6,12.2c0,1.5-5.5,5.8-6.7,5.3c-0.4-0.2-0.8-0.6-0.9-1c-0.4-2.4,1.7-3,3.1-4c1.1-0.8,2.1-2.4,3.8-1.4
		C33.3,11.3,33.5,11.9,33.6,12.2z"/>
</g>
</svg>
